<svg width="794" height="172" viewBox="0 0 794 172" fill="none" xmlns="http://www.w3.org/2000/svg">
<path d="M531.848 111.006C523.144 110.937 513.548 112.777 513.548 121.518C513.548 127.153 517.196 129.605 521.268 129.605C526.305 129.605 530.169 126.477 531.471 122.382C531.76 121.449 531.848 120.386 531.848 119.425V111.006ZM533.757 138.148L532.832 132.172H532.501C529.18 136.488 523.655 139.289 516.893 139.289C506.188 139.289 499.761 131.717 499.761 122.944C499.761 108.977 512.633 102.261 531.476 102.284V101.213C531.476 96.9624 529.713 91.5384 520.66 91.5664C515.453 91.5664 510.241 93.1251 506.537 95.3571L503.777 86.5611C507.692 84.2784 514.759 81.9611 523.251 81.9611C540.704 81.9611 545.552 92.6651 545.552 104.63V125.106C545.552 129.89 545.777 134.674 546.408 138.148H533.757Z" fill="#EE9629"/>
<path d="M559.892 100.145C559.892 93.4518 559.689 87.9411 559.413 83.1011H571.609L572.184 92.9184H572.58C575.248 85.8158 581.402 81.9598 587.189 81.9598C588.56 81.9598 589.352 82.0158 590.401 82.2318V95.0251C589.292 94.8131 588.15 94.7118 586.586 94.7118C580.39 94.7118 575.684 98.7144 574.36 104.92C574.093 106.176 573.941 107.764 573.941 109.437V138.148H559.892V100.145Z" fill="#EE9629"/>
<path d="M613.232 115.974C613.232 117.433 613.384 118.822 613.705 120.009C615.186 125.584 619.686 128.772 624.658 128.772C633.077 128.772 637.544 121.034 637.544 110.55C637.544 100.453 633.229 92.7024 624.908 92.7024C619.737 92.7024 614.989 96.6437 613.761 102.036C613.417 103.228 613.238 104.462 613.232 105.702V115.974ZM599.215 101.069C599.215 93.8384 598.98 88.1104 598.736 83.1011H611.056L611.754 91.0184H611.989C615.794 85.1304 621.838 81.9598 629.53 81.9598C642.26 81.9598 651.722 93.0704 651.722 110.054C651.722 130.024 639.849 139.288 627.792 139.288C621.194 139.288 616.02 136.368 613.47 132.402H613.232V160.33H599.215V101.069Z" fill="#EE9629"/>
<path d="M695.912 104.925C695.985 98.7051 693.441 91.3077 685.234 91.3077C677.281 91.3077 673.913 99.0464 673.38 104.925H695.912ZM673.384 114.292C673.697 124.964 681.173 129.021 689.752 129.021C695.732 129.021 700.176 128.046 704.045 126.648L706.097 135.962C701.546 137.844 695.065 139.182 687.604 139.182C669.985 139.182 659.882 128.364 659.882 111.448C659.882 95.3477 669.414 81.9611 686.141 81.9611C702.954 81.9611 709.077 95.3984 709.077 108.269C709.077 111.02 708.87 113.026 708.613 114.292H673.384Z" fill="#EE9629"/>
<path d="M736.314 67.6438V83.1011H749.421V92.9864H736.314V118.55C736.314 125.289 738.462 128.201 743.33 128.201C745.529 128.201 747.198 127.976 748.482 127.672L748.762 137.902C746.651 138.621 743.137 139.182 738.826 139.182C733.834 139.182 729.617 137.669 726.957 134.977C723.917 131.95 722.477 127.212 722.477 119.705V92.9864H714.624V83.1011H722.477V70.8771L736.314 67.6438Z" fill="#EE9629"/>
<path d="M758.593 125.764C761.501 127.489 767.098 129.444 771.915 129.444C777.775 129.444 780.618 126.956 780.618 123.229C780.618 119.585 778.443 117.585 771.855 114.934C761.353 110.886 757.112 105.196 757.149 98.9531C757.149 89.3344 765.241 81.9598 777.817 81.9598C783.682 81.9598 788.678 83.3998 791.885 85.0651L789.078 94.5784C786.709 93.2637 782.657 91.6624 778.139 91.6624C773.185 91.6624 770.507 94.2011 770.507 97.4584C770.507 100.802 772.881 102.492 779.666 105.278C789.341 109.069 793.973 114.272 794.005 122.014C794.005 132.397 785.789 139.182 771.827 139.182C765.566 139.182 759.536 137.692 755.777 135.53L758.593 125.764Z" fill="#EE9629"/>
<path d="M182.704 41.0639H218.621V149.998H240.703V41.0639H276.629V21.9573H182.704V41.0639Z" fill="#040000"/>
<path d="M342.85 130.622C321.987 130.622 308.595 113.242 308.595 84.5558C308.595 56.3358 323.134 39.0359 343.379 39.0359C353.118 39.0359 360.583 43.4865 366.978 49.9532L378.779 35.5639C370.93 27.1892 358.522 19.6506 342.922 19.6506C311.409 19.6506 285.905 44.1105 285.905 85.2451C285.905 126.846 310.725 149.998 342.014 149.998C358.142 149.998 371.123 143.534 381.211 131.701L369.414 117.702C362.406 125.47 353.887 130.622 342.85 130.622Z" fill="#040000"/>
<path d="M472.726 117.702C465.724 125.47 457.194 130.622 446.163 130.622C425.306 130.622 411.903 113.244 411.903 84.5558C411.903 56.3358 426.447 39.0359 446.692 39.0359C456.439 39.0359 463.895 43.4865 470.291 49.9545L482.085 35.5639C474.248 27.1892 461.835 19.6519 446.228 19.6519C414.727 19.6519 389.222 44.1105 389.222 85.2451C389.222 126.848 414.043 149.998 445.322 149.998C461.455 149.998 474.441 143.534 484.529 131.701L472.726 117.702Z" fill="#040000"/>
<path d="M171.957 171.956V150.45C136.408 150.45 107.469 121.542 107.469 85.9931H85.9945C85.9945 133.464 124.486 171.956 171.957 171.956Z" fill="#040000"/>
<path d="M107.469 85.9931H171.957V64.4878H111.17C108.712 71.3908 107.46 78.6654 107.469 85.9931Z" fill="#040000"/>
<path d="M123.94 42.9812H171.957V21.5053C152.908 21.5053 135.769 29.8172 123.94 42.9812Z" fill="#040000"/>
<path d="M97.5198 42.9812C102.171 34.9179 108.103 27.6646 115.082 21.5053H85.9931V42.9812H97.5198Z" fill="#040000"/>
<path d="M0.00134277 171.956H85.9945V85.9931C85.9945 133.464 47.5026 171.956 0.00134277 171.956Z" fill="#040000"/>
<path d="M85.9931 42.9812H74.4665C69.8151 34.9179 63.8835 27.6646 56.9039 21.5053H85.9931V-3.45371e-06H0V21.5053C19.0493 21.5053 36.1866 29.8173 48.0172 42.9812H0V64.4865H60.7865C63.2424 71.3906 64.4944 78.6652 64.4878 85.9931H85.9931V64.4865V42.9812Z" fill="#040000"/>
<path d="M0.00134277 150.45C35.5506 150.45 64.4879 121.544 64.4879 85.9931H0.00134277V150.45Z" fill="#040000"/>
<path d="M171.957 150.45V85.9931H107.469C107.469 121.544 136.408 150.45 171.957 150.45Z" fill="#EE9C24"/>
<path d="M171.957 21.5066V0.00133684H85.9945V21.5066H115.084C108.102 27.6643 102.171 34.9179 97.5211 42.9826H85.9945V85.9945H107.469C107.469 78.4411 108.774 71.2225 111.17 64.4878H171.957V42.9826H123.94C135.77 29.8173 152.908 21.5066 171.957 21.5066Z" fill="#EE9C24"/>
<path d="M171.957 171.956C124.486 171.956 85.9945 133.464 85.9945 85.9931V171.956H171.957Z" fill="#EE9C24"/>
<path d="M56.9052 21.5066C63.8865 27.6643 69.8184 34.9179 74.4678 42.9826H85.9945V21.5066H56.9052Z" fill="#EE9C24"/>
<path d="M0.00134277 150.45V171.956C47.5026 171.956 85.9945 133.464 85.9945 85.9931H64.4878C64.4878 121.544 35.5506 150.45 0.00134277 150.45Z" fill="#EE9C24"/>
<path d="M0.00134277 64.4878V85.9931H64.4879C64.4879 78.4411 63.1839 71.2211 60.7879 64.4878H0.00134277Z" fill="#EE9C24"/>
<path d="M0.00134277 21.5066V42.9826H48.0172C36.1879 29.8173 19.0506 21.5066 0.00134277 21.5066Z" fill="#EE9C24"/>
</svg>
