<svg width="490" height="172" viewBox="0 0 490 172" fill="none" xmlns="http://www.w3.org/2000/svg">
<path d="M182.704 41.0639H218.621V149.998H240.703V41.0639H276.629V21.9573H182.704V41.0639Z" fill="#040000"/>
<path d="M342.85 130.622C321.987 130.622 308.595 113.242 308.595 84.5558C308.595 56.3358 323.134 39.0359 343.379 39.0359C353.118 39.0359 360.583 43.4865 366.978 49.9532L378.779 35.5639C370.93 27.1892 358.522 19.6506 342.922 19.6506C311.409 19.6506 285.905 44.1105 285.905 85.2451C285.905 126.846 310.725 149.998 342.014 149.998C358.142 149.998 371.123 143.534 381.211 131.701L369.414 117.702C362.406 125.47 353.887 130.622 342.85 130.622Z" fill="#040000"/>
<path d="M472.726 117.702C465.724 125.47 457.194 130.622 446.163 130.622C425.306 130.622 411.903 113.244 411.903 84.5558C411.903 56.3358 426.447 39.0359 446.692 39.0359C456.439 39.0359 463.895 43.4865 470.291 49.9545L482.085 35.5639C474.248 27.1892 461.835 19.6519 446.228 19.6519C414.727 19.6519 389.222 44.1105 389.222 85.2451C389.222 126.848 414.043 149.998 445.322 149.998C461.455 149.998 474.441 143.534 484.529 131.701L472.726 117.702Z" fill="#040000"/>
<path d="M171.957 171.956V150.45C136.408 150.45 107.469 121.542 107.469 85.9931H85.9945C85.9945 133.464 124.486 171.956 171.957 171.956Z" fill="#040000"/>
<path d="M107.469 85.9931H171.957V64.4878H111.17C108.712 71.3908 107.46 78.6654 107.469 85.9931Z" fill="#040000"/>
<path d="M123.94 42.9812H171.957V21.5053C152.908 21.5053 135.769 29.8172 123.94 42.9812Z" fill="#040000"/>
<path d="M97.5198 42.9812C102.171 34.9179 108.103 27.6646 115.082 21.5053H85.9931V42.9812H97.5198Z" fill="#040000"/>
<path d="M0.00134277 171.956H85.9945V85.9931C85.9945 133.464 47.5026 171.956 0.00134277 171.956Z" fill="#040000"/>
<path d="M85.9931 42.9812H74.4665C69.8151 34.9179 63.8835 27.6646 56.9039 21.5053H85.9931V-3.45371e-06H0V21.5053C19.0493 21.5053 36.1866 29.8173 48.0172 42.9812H0V64.4865H60.7865C63.2424 71.3906 64.4944 78.6652 64.4878 85.9931H85.9931V64.4865V42.9812Z" fill="#040000"/>
<path d="M0.00134277 150.45C35.5506 150.45 64.4879 121.544 64.4879 85.9931H0.00134277V150.45Z" fill="#040000"/>
<path d="M171.957 150.45V85.9931H107.469C107.469 121.544 136.408 150.45 171.957 150.45Z" fill="#EE9C24"/>
<path d="M171.957 21.5066V0.00133684H85.9945V21.5066H115.084C108.102 27.6643 102.171 34.9179 97.5211 42.9826H85.9945V85.9945H107.469C107.469 78.4411 108.774 71.2225 111.17 64.4878H171.957V42.9826H123.94C135.77 29.8173 152.908 21.5066 171.957 21.5066Z" fill="#EE9C24"/>
<path d="M171.957 171.956C124.486 171.956 85.9945 133.464 85.9945 85.9931V171.956H171.957Z" fill="#EE9C24"/>
<path d="M56.9052 21.5066C63.8865 27.6643 69.8184 34.9179 74.4678 42.9826H85.9945V21.5066H56.9052Z" fill="#EE9C24"/>
<path d="M0.00134277 150.45V171.956C47.5026 171.956 85.9945 133.464 85.9945 85.9931H64.4878C64.4878 121.544 35.5506 150.45 0.00134277 150.45Z" fill="#EE9C24"/>
<path d="M0.00134277 64.4878V85.9931H64.4879C64.4879 78.4411 63.1839 71.2211 60.7879 64.4878H0.00134277Z" fill="#EE9C24"/>
<path d="M0.00134277 21.5066V42.9826H48.0172C36.1879 29.8173 19.0506 21.5066 0.00134277 21.5066Z" fill="#EE9C24"/>
</svg>
